<?xml version="1.0" encoding="UTF-8" standalone="no"?>
<svg
   xmlns:dc="http://purl.org/dc/elements/1.1/"
   xmlns:cc="http://creativecommons.org/ns#"
   xmlns:rdf="http://www.w3.org/1999/02/22-rdf-syntax-ns#"
   xmlns:svg="http://www.w3.org/2000/svg"
   xmlns="http://www.w3.org/2000/svg"
   xmlns:sodipodi="http://sodipodi.sourceforge.net/DTD/sodipodi-0.dtd"
   xmlns:inkscape="http://www.inkscape.org/namespaces/inkscape"
   inkscape:version="1.0 (4035a4fb49, 2020-05-01)"
   sodipodi:docname="trash.svg"
   id="svg905"
   version="1.1"
   fill="none"
   viewBox="0 0 38 39.300202"
   height="39.300201"
   width="38">
  <metadata
     id="metadata911">
    <rdf:RDF>
      <cc:Work
         rdf:about="">
        <dc:format>image/svg+xml</dc:format>
        <dc:type
           rdf:resource="http://purl.org/dc/dcmitype/StillImage" />
        <dc:title></dc:title>
      </cc:Work>
    </rdf:RDF>
  </metadata>
  <defs
     id="defs909" />
  <sodipodi:namedview
     inkscape:current-layer="svg905"
     inkscape:window-maximized="1"
     inkscape:window-y="-8"
     inkscape:window-x="-8"
     inkscape:cy="20.616438"
     inkscape:cx="18.626978"
     inkscape:zoom="12.904699"
     fit-margin-bottom="10"
     fit-margin-right="10"
     fit-margin-left="10"
     fit-margin-top="10"
     showgrid="false"
     id="namedview907"
     inkscape:window-height="962"
     inkscape:window-width="1280"
     inkscape:pageshadow="2"
     inkscape:pageopacity="0"
     guidetolerance="10"
     gridtolerance="10"
     objecttolerance="10"
     borderopacity="1"
     bordercolor="#666666"
     pagecolor="#ffffff"
     inkscape:document-rotation="0"
     lock-margins="false" />
  <path
     id="path901"
     fill="#ffffff"
     d="m 12.45781,28.1422 c 0.06095,0.6704 0.60948,1.158 1.27991,1.158 H 24.2614 c 0.6704,0 1.219,-0.5079 1.2799,-1.158 L 26.7197,15.79004 H 11.27948 Z"
     style="fill:#ffffff;fill-opacity:1" />
  <path
     id="path903"
     fill="#ffffff"
     d="m 26.7201,11.93002 h -5.14 V 11.27991 C 21.5801,10.568849 21.0113,10 20.3002,10 h -2.58011 c -0.71106,0 -1.27991,0.568849 -1.27991,1.27991 v 0.65011 H 11.27991 C 10.568849,11.93002 10,12.49887 10,13.20993 c 0,0.71106 0.568849,1.27991 1.27991,1.27991 H 26.7201 c 0.7111,0 1.2799,-0.56885 1.2799,-1.27991 0,-0.71106 -0.5688,-1.27991 -1.2799,-1.27991 z"
     style="fill:#ffffff;fill-opacity:1" />
</svg>
