<?xml version="1.0" standalone="no"?>
<!DOCTYPE svg PUBLIC "-//W3C//DTD SVG 20010904//EN"
 "http://www.w3.org/TR/2001/REC-SVG-20010904/DTD/svg10.dtd">
<svg version="1.0" xmlns="http://www.w3.org/2000/svg"
 width="2288.000000pt" height="2288.000000pt" viewBox="0 0 2288.000000 2288.000000"
 preserveAspectRatio="xMidYMid meet">
<metadata>
Created by potrace 1.11, written by Peter Selinger 2001-2013
</metadata>
<g transform="translate(0.000000,2288.000000) scale(0.100000,-0.100000)"
fill="#000000" stroke="none">
<path d="M21645 14148 c-68 -40 -80 -131 -24 -176 97 -78 231 18 177 126 -10
22 -27 43 -36 47 -34 13 -97 15 -117 3z"/>
<path d="M17290 13419 l0 -697 65 -1 c36 0 70 -3 74 -6 24 -14 29 33 30 270 0
138 0 257 0 265 1 13 25 16 171 15 l170 0 23 -45 c13 -25 47 -87 75 -138 29
-50 52 -95 52 -98 0 -3 9 -19 21 -35 11 -16 17 -29 13 -29 -3 0 -1 -7 7 -16 7
-9 29 -46 48 -83 20 -36 41 -74 46 -83 10 -17 41 -21 148 -19 l59 1 -22 38
c-12 20 -39 69 -60 107 -67 125 -112 209 -150 275 -21 36 -40 75 -44 87 -4 11
-13 27 -21 33 -25 21 -17 34 40 64 150 78 226 256 193 450 -15 88 -35 134 -84
193 -47 57 -95 88 -185 120 -73 26 -79 26 -371 28 l-298 2 0 -698z m577 538
c135 -33 205 -132 199 -282 -2 -38 -8 -83 -14 -98 -7 -16 -12 -31 -12 -35 0
-3 -19 -24 -43 -47 -42 -39 -91 -61 -160 -70 -50 -7 -366 -9 -373 -2 -5 4 -8
303 -5 493 l1 51 193 -2 c105 -2 202 -5 214 -8z"/>
<path d="M19977 13784 c-3 -3 -27 -7 -54 -9 -67 -5 -86 -10 -150 -41 -226
-107 -237 -396 -18 -499 46 -22 162 -57 226 -68 131 -24 217 -77 220 -135 5
-95 -26 -136 -136 -177 -38 -15 -166 -13 -212 2 -52 18 -108 71 -123 120 -9
24 -16 32 -28 29 -53 -15 -109 -29 -119 -29 -19 0 -16 -31 9 -83 60 -129 192
-197 377 -194 130 2 229 36 307 103 122 107 125 311 6 405 -44 35 -132 77
-178 85 -54 10 -219 55 -249 68 -72 33 -108 96 -91 163 9 36 65 84 119 102
116 39 250 -2 303 -91 26 -45 34 -51 48 -37 4 4 11 7 14 7 24 1 102 29 102 37
0 18 -39 84 -75 125 -45 53 -141 100 -221 109 -32 3 -62 8 -65 10 -3 2 -9 1
-12 -2z"/>
<path d="M22457 13783 c-3 -2 -25 -6 -49 -7 -134 -8 -248 -72 -321 -181 -32
-46 -33 -60 -9 -69 105 -35 132 -43 132 -36 0 4 18 27 40 52 71 81 201 115
315 83 95 -27 149 -119 130 -222 -7 -42 -37 -52 -195 -68 -36 -4 -74 -9 -85
-11 -10 -2 -37 -6 -60 -10 -213 -33 -320 -122 -329 -275 -10 -169 88 -293 261
-332 156 -35 306 14 390 128 l22 30 1 -72 c0 -69 1 -73 23 -74 40 -1 132 3
135 6 6 6 4 729 -3 765 -28 166 -142 271 -307 286 -35 3 -68 7 -75 9 -6 2 -13
1 -16 -2z m242 -641 c-1 -82 -6 -108 -26 -150 -47 -99 -145 -151 -279 -147
-68 1 -89 6 -127 28 -56 33 -87 89 -81 150 9 90 85 143 234 162 159 21 193 27
230 40 19 7 39 13 43 14 4 0 7 -43 6 -97z"/>
<path d="M20863 13767 c-28 -7 -55 -15 -59 -19 -4 -5 -16 -8 -26 -8 -10 0 -18
-4 -18 -9 0 -5 -8 -12 -17 -15 -34 -11 -91 -73 -116 -125 -21 -44 -25 -66 -23
-126 3 -87 34 -149 99 -196 62 -45 88 -55 246 -94 80 -19 161 -43 180 -53 52
-27 82 -76 77 -123 -11 -93 -83 -145 -216 -155 -122 -10 -215 36 -255 127 -13
29 -23 38 -34 34 -9 -4 -40 -11 -69 -17 -30 -6 -56 -17 -59 -25 -8 -20 42
-115 83 -157 66 -68 175 -106 305 -107 82 -1 204 24 230 47 8 8 21 14 28 14 7
0 19 7 27 15 8 8 23 20 33 27 32 22 78 101 88 150 11 51 8 106 -7 152 -12 34
-71 115 -84 116 -5 0 -17 6 -25 14 -24 20 -114 52 -231 81 -189 48 -230 69
-250 130 -28 86 39 169 154 191 39 8 41 8 103 0 76 -8 140 -51 169 -111 l15
-32 73 20 73 19 -16 41 c-20 50 -113 148 -161 170 -79 36 -217 46 -317 24z"/>
<path d="M18497 13761 c-7 -14 0 -730 7 -771 25 -136 113 -239 231 -272 64
-17 164 -12 230 13 57 21 125 78 170 143 l20 28 -1 -83 c0 -46 1 -88 3 -94 2
-6 33 -8 81 -5 l77 5 0 520 0 520 -77 3 c-43 2 -79 -1 -79 -5 -1 -4 -2 -156
-3 -338 -2 -282 -4 -337 -19 -380 -24 -70 -67 -118 -137 -153 -51 -26 -68 -29
-125 -27 -74 3 -125 30 -168 87 -47 64 -50 90 -51 463 l-1 350 -78 1 c-42 1
-79 -1 -80 -5z"/>
<path d="M21619 13753 c-4 -15 -3 -970 0 -1017 1 -10 17 -14 62 -15 33 0 64
-3 68 -6 26 -15 29 42 29 538 l-1 517 -77 0 c-66 0 -78 -3 -81 -17z"/>
<path d="M140 10976 c0 -1988 1 -2095 17 -2095 10 0 47 0 83 -1 36 -1 70 -1
75 0 6 1 15 1 20 0 6 -1 42 -1 80 -1 39 1 79 2 90 2 11 0 45 0 75 0 61 1 95 0
107 -2 4 -1 19 -1 33 0 l25 1 -1 1512 c-1 1083 1 1515 9 1520 21 13 29 0 87
-147 18 -44 38 -93 45 -110 17 -39 82 -197 105 -255 29 -74 151 -373 165 -405
8 -16 28 -66 45 -110 17 -44 37 -91 45 -105 7 -14 13 -27 13 -30 1 -8 90 -232
144 -360 6 -14 12 -29 14 -35 4 -16 74 -184 100 -243 13 -29 24 -55 24 -58 0
-3 16 -45 36 -92 20 -48 40 -96 44 -107 4 -11 15 -36 23 -55 8 -19 43 -105 77
-190 34 -85 70 -173 79 -195 10 -22 26 -60 36 -85 10 -25 26 -64 37 -88 10
-23 29 -72 43 -108 13 -35 32 -81 41 -102 26 -60 32 -76 39 -99 13 -47 17 -48
276 -47 l244 1 26 64 c15 35 47 115 72 176 25 62 52 128 60 145 34 78 48 114
48 123 1 6 7 21 15 35 7 14 32 72 55 130 22 58 49 123 58 145 20 45 45 107 47
115 1 6 30 74 44 105 5 11 48 117 96 235 47 118 93 227 100 243 8 15 12 27 9
27 -3 0 1 10 9 23 8 12 15 25 16 29 0 4 8 25 17 45 8 21 16 43 17 48 1 6 4 15
8 20 4 6 21 46 38 90 18 44 40 99 51 122 10 23 19 48 19 55 0 8 6 22 13 33 7
11 23 47 36 80 13 33 29 74 36 90 7 17 27 64 44 106 17 42 36 90 42 105 7 16
13 31 14 34 5 14 27 67 35 85 5 11 30 72 55 135 26 63 53 129 61 147 8 17 14
34 14 38 0 3 9 26 20 49 10 24 28 65 38 92 14 35 26 50 41 52 21 3 22 0 21
-75 -1 -43 -1 -725 -1 -1515 l1 -1437 43 -1 c23 0 74 0 112 0 39 1 77 1 85 1
8 0 40 0 70 0 65 0 58 0 140 -1 36 -1 84 -1 108 -1 l42 1 0 2095 0 2095 -384
0 -383 0 -18 -47 c-10 -27 -28 -70 -40 -98 -13 -27 -33 -77 -46 -110 -12 -33
-25 -64 -29 -70 -4 -5 -11 -21 -15 -34 -4 -13 -14 -40 -23 -60 -9 -20 -16 -38
-17 -41 -2 -7 -11 -27 -55 -135 -41 -99 -52 -127 -55 -135 -1 -3 -6 -16 -12
-30 -6 -14 -46 -110 -88 -215 -42 -104 -80 -194 -83 -200 -4 -5 -7 -12 -8 -15
-1 -6 -3 -12 -51 -130 -100 -243 -146 -357 -156 -380 -6 -14 -11 -27 -12 -30
-1 -3 -5 -14 -10 -25 -4 -11 -24 -58 -43 -105 -19 -47 -37 -89 -40 -95 -4 -5
-7 -14 -8 -20 -1 -5 -29 -75 -61 -155 -79 -190 -76 -184 -75 -192 1 -5 -3 -8
-8 -8 -6 0 -10 -7 -10 -15 0 -8 -9 -37 -21 -63 -12 -26 -25 -56 -30 -67 -5
-11 -60 -148 -124 -305 -64 -157 -120 -294 -125 -305 -5 -11 -23 -55 -40 -97
-23 -56 -37 -78 -50 -78 -26 0 -32 11 -95 165 -31 77 -63 154 -70 170 -24 58
-79 194 -175 430 -69 169 -70 172 -99 237 -12 26 -21 54 -21 61 0 7 -4 17 -9
23 -5 5 -26 52 -46 104 -21 52 -45 113 -55 135 -10 22 -57 137 -104 255 -48
118 -94 229 -101 245 -7 17 -28 66 -45 110 -17 44 -49 121 -69 170 -38 91 -53
126 -56 135 -1 3 -6 16 -12 30 -6 14 -21 50 -33 80 -12 30 -28 71 -37 90 -8
19 -18 44 -23 55 -8 22 -45 111 -66 160 -7 17 -22 55 -34 85 -12 30 -27 69
-34 85 -8 17 -34 80 -58 140 -25 61 -62 152 -83 203 l-38 92 -383 0 -384 0 0
-2094z"/>
<path d="M12048 12755 c-2 -11 -3 -181 -3 -377 l1 -357 -222 1 c-122 0 -225
-2 -230 -5 -7 -4 -11 -405 -5 -474 1 -10 54 -13 229 -13 l228 0 1 -952 c0
-871 3 -1058 17 -1099 3 -8 7 -26 10 -40 8 -49 58 -164 100 -229 134 -210 367
-339 657 -365 35 -3 76 -7 92 -9 15 -2 27 0 27 3 0 3 33 6 73 7 120 0 168 8
314 50 13 3 20 12 18 22 -2 10 -8 46 -15 82 -6 36 -16 76 -21 90 -5 14 -11 39
-13 55 -3 17 -7 41 -10 55 -3 14 -15 67 -27 117 l-21 93 -31 -6 c-191 -35
-341 -20 -424 42 -71 54 -117 145 -129 258 -4 45 -8 1509 -5 1789 l1 37 320 0
c249 0 320 3 321 13 0 6 2 117 2 244 2 201 0 233 -13 234 -8 0 -153 1 -322 1
l-308 0 -1 27 c0 14 -1 184 -2 376 l-2 350 -302 0 c-294 0 -302 0 -305 -20z"/>
<path d="M6597 12063 c-1 -1 -34 -4 -72 -8 -68 -6 -93 -9 -145 -20 -14 -3 -37
-7 -52 -10 -121 -22 -384 -137 -472 -206 -80 -63 -168 -141 -206 -183 -25 -28
-52 -57 -61 -66 -79 -82 -243 -392 -274 -520 -2 -8 -11 -42 -20 -75 -18 -67
-23 -88 -30 -127 -3 -16 -8 -43 -11 -60 -3 -18 -7 -49 -9 -68 -2 -19 -7 -60
-10 -90 -19 -169 0 -497 38 -665 76 -332 236 -616 453 -805 291 -254 706 -375
1154 -336 144 12 211 24 334 60 84 24 256 93 266 106 3 4 13 9 22 13 75 27
273 196 344 292 16 22 31 42 34 45 34 30 162 312 148 325 -2 2 -19 6 -38 9
-35 6 -44 7 -155 28 -33 6 -69 12 -80 13 -11 2 -36 6 -55 10 -19 4 -69 13
-110 20 -41 8 -89 17 -106 20 -29 7 -32 4 -53 -42 -30 -65 -45 -90 -70 -119
-11 -13 -21 -27 -21 -29 0 -12 -87 -89 -140 -124 -51 -35 -141 -78 -179 -86
-9 -2 -32 -9 -51 -15 -76 -23 -299 -33 -395 -17 -94 16 -142 27 -190 46 -213
85 -357 220 -450 425 -48 106 -74 205 -91 351 -12 102 -12 105 10 110 12 2
507 3 1101 2 594 -1 1088 0 1099 2 17 4 18 15 12 230 -5 223 -7 257 -20 336
-14 84 -17 103 -38 190 -27 109 -22 95 -36 128 -7 16 -12 34 -12 40 0 16 -137
293 -153 309 -7 7 -24 29 -37 48 -42 60 -137 162 -202 217 -121 101 -357 219
-499 249 -134 28 -134 28 -234 39 -54 7 -234 13 -238 8z m288 -531 c181 -46
317 -136 426 -282 26 -35 65 -106 69 -125 1 -5 7 -17 14 -25 12 -14 43 -108
51 -155 15 -82 19 -117 19 -165 l1 -55 -813 0 -813 0 6 55 c6 64 13 107 22
135 4 11 8 22 8 25 44 168 160 342 299 449 60 46 166 103 233 125 139 46 339
53 478 18z"/>
<path d="M9878 12065 c-2 -1 -48 -5 -103 -9 -55 -3 -111 -8 -125 -11 -14 -3
-41 -8 -60 -11 -178 -28 -369 -104 -517 -206 -76 -53 -206 -182 -225 -223 -6
-14 -14 -25 -18 -25 -20 0 -97 -197 -117 -300 -9 -44 -9 -265 -1 -305 15 -69
18 -81 34 -129 22 -66 63 -144 104 -200 25 -33 123 -129 160 -157 92 -67 299
-169 374 -183 12 -2 33 -9 47 -14 21 -9 181 -46 279 -66 14 -3 57 -12 95 -21
39 -8 79 -17 90 -19 99 -20 262 -60 315 -78 213 -73 322 -193 323 -355 0 -92
-12 -131 -62 -204 -40 -60 -157 -154 -204 -163 -7 -2 -25 -9 -42 -16 -97 -41
-189 -55 -355 -54 -182 1 -258 16 -379 76 -120 60 -231 190 -271 318 -15 49
-29 72 -39 66 -5 -3 -52 -11 -128 -21 -12 -2 -34 -6 -50 -9 -15 -3 -48 -8 -73
-12 -25 -3 -56 -7 -70 -10 -14 -2 -43 -6 -65 -9 -22 -3 -49 -7 -60 -9 -11 -2
-44 -7 -73 -11 -50 -7 -53 -8 -48 -33 11 -58 17 -86 22 -94 3 -4 7 -16 9 -25
2 -10 13 -40 26 -68 12 -27 23 -55 25 -62 6 -32 124 -196 183 -253 156 -154
379 -265 621 -309 30 -6 65 -12 78 -15 43 -9 217 -19 322 -18 141 2 215 9 340
33 30 6 62 11 70 12 8 2 21 6 28 10 6 5 12 6 12 3 0 -21 375 142 400 173 3 3
23 19 45 34 192 133 338 374 361 597 11 109 9 174 -11 295 -7 43 -48 152 -75
200 -71 123 -191 235 -330 307 -36 18 -66 36 -68 41 -2 4 -9 7 -17 7 -7 0 -38
11 -69 25 -31 14 -56 23 -56 20 0 -2 -17 3 -37 11 -20 9 -44 17 -52 19 -9 2
-52 12 -96 24 -44 11 -92 23 -107 26 -70 13 -85 17 -113 25 -28 9 -307 74
-365 86 -52 10 -157 48 -227 81 -86 41 -166 115 -195 181 -20 48 -29 170 -15
220 22 81 90 166 178 223 57 36 188 84 261 95 72 10 245 12 288 3 19 -4 50
-10 67 -14 162 -28 328 -165 402 -330 34 -76 -3 -75 366 -10 116 21 212 39
214 41 7 6 -50 166 -82 229 -106 212 -296 387 -517 475 -65 27 -211 68 -260
75 -19 3 -46 7 -60 10 -33 7 -297 24 -302 20z"/>
<path d="M15227 12064 c-1 -1 -40 -4 -87 -8 -47 -3 -96 -8 -110 -10 -87 -14
-111 -19 -165 -32 -101 -25 -298 -104 -310 -125 -4 -5 -15 -9 -26 -9 -10 0
-19 -4 -19 -8 0 -5 -11 -14 -25 -20 -45 -21 -159 -113 -242 -197 -100 -102
-193 -236 -260 -375 -40 -83 -92 -215 -98 -250 -1 -3 -11 -48 -24 -100 -27
-110 -26 -106 -41 -228 -20 -160 -18 -403 4 -567 3 -22 8 -54 10 -72 3 -18 8
-42 11 -54 4 -11 8 -31 10 -42 23 -156 176 -504 263 -595 6 -7 12 -18 12 -23
0 -20 230 -238 300 -284 41 -28 77 -53 78 -57 2 -5 12 -8 22 -8 10 0 20 -3 22
-7 2 -7 69 -42 88 -48 3 -1 19 -7 35 -14 51 -22 79 -33 95 -37 8 -2 47 -13 85
-24 315 -92 736 -63 1035 71 36 16 72 34 80 39 8 6 29 17 46 25 57 26 198 138
287 227 48 48 87 92 87 96 0 5 11 22 25 38 34 39 40 46 48 64 4 8 17 31 28 50
45 72 68 117 93 180 15 36 31 74 36 85 10 23 30 88 35 113 2 9 4 17 5 17 2 0
4 7 29 120 10 50 22 115 26 145 3 30 8 75 11 100 6 56 6 354 0 395 -2 17 -7
55 -10 85 -11 93 -25 168 -52 265 -9 33 -17 65 -19 70 -10 44 -60 165 -102
250 -137 272 -343 479 -613 616 -102 51 -290 107 -420 125 -72 9 -277 23 -283
18z m203 -528 c30 -7 58 -14 62 -15 44 -10 158 -56 158 -63 0 -5 6 -8 13 -8 6
0 25 -11 41 -25 16 -14 32 -25 36 -25 4 0 37 -30 73 -66 72 -72 160 -211 197
-309 13 -33 26 -69 31 -80 22 -55 53 -206 65 -320 13 -119 7 -360 -10 -455 -3
-14 -7 -38 -10 -55 -3 -16 -8 -46 -12 -65 -7 -43 -51 -176 -70 -211 -7 -15
-10 -29 -7 -33 4 -3 2 -6 -4 -6 -6 0 -13 -10 -17 -22 -7 -30 -96 -164 -138
-208 -82 -87 -237 -187 -318 -204 -14 -3 -54 -12 -89 -20 -87 -19 -275 -15
-366 9 -232 60 -395 200 -513 443 -22 45 -39 82 -37 82 3 0 -4 20 -15 45 -11
25 -17 45 -14 45 3 0 2 6 -3 13 -4 6 -8 17 -9 22 -1 6 -9 46 -18 90 -9 44 -21
123 -25 175 -8 93 -6 344 3 386 2 12 7 43 11 70 3 27 17 90 31 139 13 50 26
97 28 105 2 8 22 54 44 101 94 203 222 336 405 418 37 17 67 28 67 26 0 -3 12
0 27 6 15 6 46 13 68 16 22 3 42 7 43 8 10 9 225 2 272 -9z"/>
</g>
</svg>
